<?xml version="1.0" encoding="utf-8"?>
<svg viewBox="22.875 2.355 24.415 12.2" width="96" height="48" xmlns="http://www.w3.org/2000/svg">
	<path fill="#d1e187" fill-rule="evenodd" d="M 30.960938 2.875 C 31.816405999999997 2.84375 32.667969 2.886719 33.515625 3.007812 C 33.976562 3.2070309999999997 34.285156 3.546875 34.4375 4.023438 C 34.496094 4.96875 34.496094 5.9140619999999995 34.4375 6.855468999999999 C 34.207031 7.558593999999999 33.722656 7.925780999999999 32.984375 7.960938 C 32.308594 8.019530999999999 31.636719 8.019530999999999 30.960938 7.960938 C 30.21875 7.925781 29.734375 7.558593999999999 29.507811999999998 6.855468999999999 C 29.449219 5.9140619999999995 29.449219 4.968749999999999 29.507811999999998 4.023437999999999 C 29.75 3.320312 30.234375 2.9375 30.960938 2.875 Z" />
	<path fill="#84b341" fill-rule="evenodd" d="M 37.035156 2.875 C 37.742188 2.859375 38.445312 2.875 39.152344 2.917969 C 39.824219 2.96875 40.277344 3.308594 40.515625 3.9375 C 40.691406 4.9375 40.691406 5.941406000000001 40.515625 6.9453119999999995 C 40.28125 7.5703119999999995 39.828125 7.910156 39.152344 7.960938 C 38.199219 8.058594 37.257812 8 36.332031 7.785156 C 35.921875 7.566406 35.671875 7.2265619999999995 35.582031 6.765625 C 35.523438 5.882812 35.523438 5 35.582031 4.113281 C 35.792969 3.359375 36.277344 2.9453119999999995 37.035156 2.875 Z" />
	<path fill="#d1e187" fill-rule="evenodd" d="M 43.113281 2.875 C 43.972656 2.84375 44.820312 2.886719 45.667969 3.007812 C 46.265625 3.21875 46.605469 3.648438 46.679688 4.2890619999999995 C 46.742188 5.058593999999999 46.742188 5.824218999999999 46.679688 6.589843999999999 C 46.566406 7.441405999999999 46.082031 7.898438 45.226562 7.960938 C 44.277344 8.058594 43.335938 8 42.410156 7.785156 C 41.976562 7.546875 41.726562 7.175781 41.660156 6.679688 C 41.582031 5.730468999999999 41.609375 4.785156 41.75 3.8476559999999997 C 42.019531 3.25 42.472656 2.9257809999999997 43.113281 2.875 Z" />
	<path fill="#d1e186" fill-rule="evenodd" d="M 37.300781 8.980469 C 38.039062 9.015625 38.773438 9.058594 39.503906 9.113280999999999 C 40.199219 9.339844 40.566406 9.828124999999998 40.605469 10.570312 C 40.695312 11.496094 40.636719 12.410156 40.429688 13.3125 C 40.167969 13.777344 39.773438 14.027344 39.238281 14.066406 C 38.445312 14.125 37.652344 14.125 36.859375 14.066406 C 36.179688 13.941406 35.753906 13.542969000000001 35.582031 12.871094000000001 C 35.503906 11.894531 35.53125 10.917969000000001 35.671875 9.953125 C 35.75 9.722656 35.882812 9.53125 36.066406 9.375 C 36.464844 9.160156 36.875 9.027344 37.300781 8.980469 Z" />
	<path fill="#d0e187" fill-rule="evenodd" d="M 25.144531 8.980469 C 25.855469 9.019530999999999 26.5625 9.0625 27.261719 9.113280999999999 C 27.863281 9.246094 28.230469 9.613280999999999 28.359375 10.218749999999998 C 29.117188 13.410155999999999 27.898438 14.691405999999997 24.707031 14.066405999999999 C 24.070312 13.988280999999999 23.644531 13.652344 23.429688 13.046874999999998 C 23.371094 12.074218999999998 23.371094 11.101561999999998 23.429688 10.128905999999997 C 23.734375 9.335937999999997 24.304688 8.953124999999996 25.144531 8.980468999999998 L 25.144531 8.980469 Z" />
	<path fill="#a5cd38" fill-rule="evenodd" d="M 31.222656 8.980469 C 31.960938 9.015625 32.695312 9.058594 33.425781 9.113280999999999 C 33.941406 9.273437999999999 34.277344 9.613280999999999 34.4375 10.128905999999999 C 34.496094 11.074219 34.496094 12.015624999999998 34.4375 12.960937999999999 C 34.273438 13.624999999999998 33.847656 13.996094 33.160156 14.066405999999999 C 32.367188 14.124999999999998 31.574219 14.124999999999998 30.785156 14.066405999999999 C 30.097656 13.996094 29.671875 13.624999999999998 29.507812 12.960937999999999 C 29.449219000000003 12.015624999999998 29.449219000000003 11.074219 29.507812 10.128905999999999 C 29.8125 9.332030999999999 30.386719000000003 8.949219 31.222656 8.980469 Z" />
</svg>
