<svg width="24" height="22" viewBox="0 0 24 22" fill="none" xmlns="http://www.w3.org/2000/svg">
<path d="M12.9491 14.2582L10.1782 11.52L10.2109 11.4873C12.1091 9.37091 13.4618 6.93818 14.2582 4.36364H17.4545V2.18182H9.81818V0H7.63636V2.18182H0V4.35273H12.1855C11.4545 6.45818 10.2982 8.45455 8.72727 10.2C7.71273 9.07636 6.87273 7.84364 6.20727 6.54545H4.02545C4.82182 8.32364 5.91273 10.0036 7.27636 11.52L1.72364 16.9964L3.27273 18.5455L8.72727 13.0909L12.12 16.4836L12.9491 14.2582ZM19.0909 8.72727H16.9091L12 21.8182H14.1818L15.4036 18.5455H20.5855L21.8182 21.8182H24L19.0909 8.72727ZM16.2327 16.3636L18 11.64L19.7673 16.3636H16.2327Z" fill="white"/>
</svg>
