<svg width="48" height="48" viewBox="0 0 48 48" fill="none" xmlns="http://www.w3.org/2000/svg">
<g id="search-icon-menu">
<path id="search" d="M42.1653 36.9162L42.1653 36.9162L42.1691 36.9197C42.402 37.1354 42.7115 37.2531 43.0307 37.2499C43.35 37.2468 43.657 37.1231 43.8854 36.9027C44.1142 36.6821 44.246 36.3819 44.2498 36.0659C44.2536 35.7499 44.129 35.4467 43.9055 35.2208L43.9056 35.2208L43.9015 35.2169L40.3947 31.8297C41.5504 30.3583 42.2427 28.526 42.2427 26.54C42.2427 21.7023 38.164 17.777 33.1771 17.777C28.1902 17.777 24.1135 21.7024 24.1135 26.54C24.1135 31.3772 28.1899 35.3104 33.1771 35.3104C35.2305 35.3104 37.1257 34.6408 38.6477 33.5204L42.1653 36.9162ZM33.1771 20.1692C36.8457 20.1692 39.7817 23.0174 39.7817 26.54C39.7817 30.0629 36.8453 32.9182 33.1771 32.9182C29.509 32.9182 26.5725 30.0629 26.5725 26.54C26.5725 23.0174 29.5086 20.1692 33.1771 20.1692Z" fill="white" stroke="white" stroke-width="0.5"/>
<path id="Subtract" fill-rule="evenodd" clip-rule="evenodd" d="M32.5823 13.9019C33.3836 13.9019 34.0332 13.2523 34.0332 12.451C34.0332 11.6497 33.3836 11.0001 32.5823 11.0001L5.45093 11.0001C4.6496 11.0001 4 11.6497 4 12.451C4 13.2523 4.64961 13.9019 5.45093 13.9019L32.5823 13.9019ZM22.5898 33.6686C23.2638 34.7521 24.1009 35.7299 25.0684 36.5705L5.45093 36.5705C4.64961 36.5705 4 35.9209 4 35.1196C4 34.3182 4.6496 33.6686 5.45093 33.6686L22.5898 33.6686ZM20.8781 25.2361C21.0381 24.2244 21.3221 23.2521 21.7147 22.3342L5.45093 22.3342C4.6496 22.3342 4 22.9838 4 23.7852C4 24.5865 4.64961 25.2361 5.45093 25.2361L20.8781 25.2361Z" fill="white"/>
</g>
</svg>
